# xmcd CD database file
#
# Track frame offsets:
#	150
#	17480
#	37707
#	67841
#	86912
#	105904
#	136212
#	154666
#	171316
#	188583
#	201751
#	228261
#	250086
#	269537
#	297930
#
# Disc length: 4183 seconds
#
# Revision: 1
# Processed by: cddbd v1.4PL0 Copyright (c) Steve Scherf et al.
# Submitted via: CDex 1.50beta8
#
DISCID=bc10550f
DTITLE=Various Artist - The Blues Legend
DYEAR=2000
DGENRE=Blues
TTITLE0=Dave Thompson - You Took My Baby
TTITLE1=Michael Hill's Blues Mob` - Fallin` Through The Cracks
TTITLE2=John Lee Hooker and Van Morrison - Don't Look Back
TTITLE3=Tinsley Ellis - Sings of The Blues
TTITLE4=Jimmie Vaughan - Lost in You
TTITLE5=Luter Allison - Let's Try Again
TTITLE6=Jonny Lang - Lie to Me
TTITLE7=Bill Wyman and Rhythm Kings - Stuff
TTITLE8=Rod Stewart feat. Ron Wood - I'd Rather Go Blind
TTITLE9=Peter Green's Fleetwood Mac - I'd Loved Another Woman
TTITLE10=Paul Black and Flipkings - Moo Goo
TTITLE11=The Santana Band - Brightest Star
TTITLE12=Omar and Howlers - Black Bottom
TTITLE13=Eric Clapton feat. Robert Cray - Old Love
TTITLE14=John Mayall's Bluebreakers feat. Peter Green - Oh, Pretty Woman
EXTD=YEAR: 2000
EXTT0=
EXTT1=
EXTT2=
EXTT3=
EXTT4=
EXTT5=
EXTT6=
EXTT7=
EXTT8=
EXTT9=
EXTT10=
EXTT11=
EXTT12=
EXTT13=
EXTT14=
PLAYORDER=
